<svg version="1.1" id="Layer_1" xmlns="http://www.w3.org/2000/svg" xmlns:xlink="http://www.w3.org/1999/xlink" x="0px" y="0px"
	 width="100%" viewBox="0 0 300 92" enable-background="new 0 0 300 92" xml:space="preserve">
<path fill="#FAFBFC" opacity="1.000000" stroke="none" 
	d="
M240.000000,93.000000 
	C160.000031,93.000000 80.500046,93.000000 1.000053,93.000000 
	C1.000036,62.333366 1.000036,31.666733 1.000018,1.000074 
	C100.999939,1.000049 200.999878,1.000049 300.999878,1.000025 
	C300.999908,31.666595 300.999908,62.333191 300.999939,92.999893 
	C280.833344,93.000000 260.666656,93.000000 240.000000,93.000000 
M111.005234,64.080383 
	C111.005234,64.080383 111.167053,64.213921 111.794785,64.088043 
	C112.614983,63.429203 113.435173,62.770363 114.646980,62.096149 
	C114.646980,62.096149 114.993881,61.913769 115.736290,62.307568 
	C115.868683,63.720108 116.001083,65.132652 116.165367,66.885361 
	C121.373848,66.885361 126.422012,66.964012 131.462280,66.799919 
	C132.211914,66.775513 132.924347,65.608063 133.898712,64.170029 
	C137.053131,46.330231 140.207565,28.490433 143.421738,10.312761 
	C136.511292,10.312761 130.093338,10.312761 123.331589,10.312761 
	C122.324600,15.794010 121.324997,21.157171 120.356918,26.526018 
	C119.352585,32.096004 118.452873,37.685932 117.370369,43.240433 
	C116.327019,48.594067 110.331917,52.188637 104.415047,51.159039 
	C99.713989,50.341007 98.337700,47.316383 99.525734,40.589432 
	C101.301483,30.534582 103.040565,20.473257 104.834740,10.188303 
	C97.916725,10.188303 91.612175,10.188303 84.758751,10.188303 
	C84.057701,14.103586 83.364372,17.996893 82.662964,21.888744 
	C81.216454,29.914862 79.674866,37.925121 78.338242,45.969463 
	C76.426376,57.475765 81.508278,66.369545 91.158287,67.847168 
	C95.004478,68.436119 99.036819,67.809433 103.679565,67.783226 
	C105.533569,66.946655 107.387573,66.110085 109.094002,65.179558 
	C109.094002,65.179558 109.189529,65.326111 109.791733,65.246941 
	C110.257568,64.891670 110.723404,64.536400 111.005234,64.080383 
M218.254929,82.579544 
	C218.035828,84.180367 217.816742,85.781197 217.469757,88.316429 
	C219.405365,87.638153 220.671448,87.194481 222.665771,87.029823 
	C226.035568,87.359840 229.405380,87.689865 232.806290,88.022934 
	C232.806290,85.527557 233.174164,83.809608 232.708099,82.359726 
	C232.188950,80.744614 231.153976,78.430519 229.908463,78.109703 
	C227.872864,77.585373 224.744949,76.581963 223.947784,80.465401 
	C223.828293,81.047523 222.704788,81.423561 222.023132,81.041733 
	C221.323471,75.299919 217.787262,78.312172 214.291840,78.403549 
	C213.193787,78.892807 211.189194,79.330528 211.157944,79.880409 
	C211.036560,82.015945 211.542297,84.187134 211.814621,86.345047 
	C212.235123,86.278404 212.655624,86.211769 213.076126,86.145126 
	C213.720795,84.724709 214.365479,83.304291 215.668137,82.007942 
	C216.104446,81.935623 216.540756,81.863312 217.683807,81.878113 
	C217.920273,81.857330 218.156723,81.836548 218.254929,82.579544 
M281.428894,85.216545 
	C281.701080,82.960068 281.973267,80.703583 282.245453,78.447105 
	C281.565186,78.225777 280.884918,78.004440 280.204651,77.783112 
	C277.823639,80.416946 278.036102,84.054420 277.545502,89.002518 
	C279.807678,87.434036 280.946930,86.644157 282.542694,86.421280 
	C283.915985,88.764297 285.495148,88.597984 286.097229,86.159653 
	C287.137665,81.945831 287.656403,77.603210 288.393982,73.314621 
	C287.802673,73.074318 287.211365,72.834015 286.620056,72.593712 
	C285.911560,73.797279 284.944092,74.921417 284.545746,76.220100 
	C283.565918,79.414406 282.847870,82.689003 281.428894,85.216545 
M194.146866,77.939148 
	C192.452393,78.068481 190.757935,78.197807 189.119812,78.322838 
	C188.382584,79.947556 187.694199,81.464653 186.923599,82.213066 
	C184.967026,76.509972 181.417328,76.142502 176.077194,80.528252 
	C176.027405,80.346931 175.977600,80.165604 176.119186,79.309288 
	C175.745895,78.905487 175.372604,78.501686 174.166397,78.152054 
	C171.529282,78.086212 168.608978,77.512680 168.630585,80.429497 
	C166.379929,79.622154 164.185638,78.835037 161.336975,77.992867 
	C160.768234,78.286690 160.199509,78.580513 158.962814,79.057518 
	C158.285004,79.974823 157.242844,80.803383 156.993912,81.825172 
	C156.037125,85.752632 152.987686,84.817787 150.636658,84.344795 
	C149.612595,84.138771 148.029556,81.269005 148.320007,80.906403 
	C149.626541,79.275398 151.403610,77.916023 153.243332,76.865639 
	C154.058624,76.400154 155.424606,76.899216 156.540604,76.960426 
	C156.814606,76.531807 157.088608,76.103188 157.362625,75.674568 
	C156.288437,74.878769 155.258606,73.476776 154.132202,73.394333 
	C149.752914,73.073837 146.362137,74.834320 144.709091,79.159615 
	C143.533768,82.234917 143.481186,85.288193 146.712936,87.006721 
	C150.235245,88.879768 153.813232,89.080544 156.080536,85.074402 
	C156.995850,85.879646 157.708221,86.506355 159.020355,87.678177 
	C160.325546,87.699516 161.630722,87.720856 163.599808,87.679710 
	C164.999435,86.648949 166.399063,85.618195 167.375641,84.898994 
	C168.120895,85.890343 168.862091,86.876274 169.603287,87.862213 
	C170.366119,86.823532 171.031082,85.691101 171.914978,84.768417 
	C173.200012,83.427010 174.642914,82.236824 175.981979,81.830879 
	C175.824966,87.566826 178.133728,89.280838 183.282669,87.131546 
	C184.603271,86.580292 185.766113,85.651085 187.608444,85.195381 
	C188.317490,86.016029 189.026520,86.836685 189.935226,87.888428 
	C191.020035,84.982231 191.817581,82.845581 192.615143,80.708931 
	C193.095673,80.858223 193.576218,81.007523 194.056763,81.156822 
	C194.056763,83.313293 194.056763,85.469765 194.056763,88.939194 
	C195.593735,87.549751 196.340179,86.874954 197.790588,85.926376 
	C201.419830,86.741493 205.049072,87.556602 208.993301,88.442467 
	C208.080017,78.203377 208.079742,77.921257 205.473633,77.923759 
	C203.656860,77.925514 201.840988,78.833229 200.024704,79.336250 
	C200.168839,79.771553 200.312973,80.206856 200.457108,80.642159 
	C201.862976,80.791504 203.268845,80.940857 204.134415,81.032806 
	C201.934143,82.413864 199.547470,83.911919 197.663651,84.695396 
	C197.710800,84.119896 197.757950,83.544395 198.058868,82.202026 
	C198.336044,79.857826 198.186401,77.824455 194.146866,77.939148 
M21.979019,8.644059 
	C21.650471,8.757609 21.321922,8.871160 20.273111,8.949538 
	C16.008732,10.383452 12.966610,13.287060 12.144157,17.616703 
	C9.267229,32.761738 6.588499,47.947212 4.082703,63.158215 
	C3.355445,67.572906 5.240976,70.918709 10.766905,72.310867 
	C21.816210,72.306412 32.865517,72.301956 44.602886,72.619179 
	C48.349052,76.031853 52.024437,79.527412 55.875980,82.816689 
	C57.431934,84.145485 59.373127,85.921257 61.138622,85.920830 
	C64.885078,85.919930 65.296463,82.575813 65.815651,79.584129 
	C69.279015,59.627415 72.602943,39.642853 76.421486,19.753605 
	C77.598297,13.624107 75.446014,8.644385 65.028610,8.345493 
	C51.656593,8.407994 38.284576,8.470495 24.314510,8.289289 
	C23.707893,8.445582 23.101274,8.601874 21.979019,8.644059 
M266.327850,80.618034 
	C262.592316,76.202827 259.141541,76.778870 254.665207,81.701836 
	C254.835220,79.103683 255.005234,76.505531 255.266449,72.513626 
	C251.523163,75.548500 249.164871,77.460487 246.628845,79.516579 
	C245.934341,78.133293 245.552094,76.792839 244.714325,75.862633 
	C243.838272,74.889915 242.524200,74.311707 241.401596,73.561050 
	C240.780045,74.588623 239.838196,75.546646 239.597137,76.656837 
	C238.879196,79.963203 238.436554,83.329330 237.886337,86.672104 
	C238.476593,86.946106 239.066849,87.220108 239.657104,87.494110 
	C240.787552,85.759056 241.917999,84.024010 243.103088,82.205078 
	C243.871063,83.065765 244.781219,84.085800 245.860886,85.295807 
	C247.292984,84.276756 248.486298,83.427635 250.165070,82.233063 
	C250.165070,84.455688 250.165070,86.039078 250.165070,87.622459 
	C250.673599,87.859673 251.182129,88.096886 251.690659,88.334099 
	C252.798462,86.349060 253.906265,84.364014 255.244217,83.173721 
	C256.568024,88.143257 260.840332,89.869057 264.234314,86.505104 
	C265.627655,85.124123 266.038300,82.751640 267.597565,81.232239 
	C268.634949,83.443871 269.672363,85.655502 270.709747,87.867126 
	C272.500671,85.953392 274.357971,84.095650 276.045593,82.094757 
	C276.615936,81.418533 276.756470,80.379791 277.093445,79.506721 
	C276.773132,79.186989 276.452820,78.867249 276.132538,78.547516 
	C274.561432,79.861725 272.990356,81.175926 271.810730,82.162682 
	C270.977814,80.819275 270.110168,79.419907 269.242584,78.020554 
	C268.486969,78.993477 267.731354,79.966400 266.327850,80.618034 
M104.201286,81.911140 
	C103.629951,80.613640 103.058617,79.316139 102.487274,78.018639 
	C101.677162,79.216370 100.552788,80.314384 100.133385,81.636101 
	C99.558678,83.447266 99.519058,85.428223 99.250122,87.336418 
	C99.578987,87.621635 99.907860,87.906853 100.236725,88.192070 
	C101.148834,87.370010 102.171532,86.638718 102.941826,85.700256 
	C103.705162,84.770264 104.214066,83.631439 104.143387,83.095291 
	C104.182526,83.719978 104.065018,84.407082 104.285187,84.959633 
	C106.333885,90.101181 110.674843,87.034790 114.659630,87.501205 
	C116.101456,87.634300 117.543282,87.767403 119.499863,88.011490 
	C119.666443,87.956154 119.833023,87.900826 120.746681,87.868362 
	C122.449585,87.815407 124.152481,87.762451 126.328278,87.688034 
	C126.610573,87.141731 126.892876,86.595428 127.856926,86.243561 
	C131.155563,86.891014 134.454208,87.538460 138.033951,88.241081 
	C138.948624,82.829628 139.704437,78.358047 140.460266,73.886467 
	C139.891769,73.627373 139.323257,73.368286 138.754761,73.109200 
	C137.708740,74.566330 136.662720,76.023460 135.250778,77.990311 
	C131.143280,76.234993 129.133041,79.738449 126.646286,83.880814 
	C126.993637,76.386932 122.755844,77.728630 118.518417,78.154556 
	C118.412788,78.278328 118.307159,78.402092 118.201530,78.525864 
	C118.463036,78.696472 118.724541,78.867081 119.250038,79.640213 
	C120.470177,80.412453 121.690323,81.184685 122.448555,81.990929 
	C122.448555,81.990929 122.001373,82.111534 121.259666,81.959229 
	C119.368423,82.539948 117.477180,83.120659 115.565735,83.707573 
	C115.647125,82.810547 115.727913,81.920143 116.019249,80.237114 
	C116.360046,78.197052 116.700851,76.156990 117.041656,74.116928 
	C116.671722,73.812080 116.301796,73.507225 115.931862,73.202377 
	C114.656624,74.621086 113.381393,76.039787 111.728264,77.878906 
	C109.118561,77.646034 105.890068,77.777206 104.201286,81.911140 
M88.659409,87.885735 
	C89.121223,87.811760 89.583038,87.737793 90.478447,87.747314 
	C90.796822,87.603203 90.921677,87.359802 91.185646,86.310928 
	C91.931976,84.472183 92.678299,82.633438 93.424629,80.794693 
	C93.915062,81.003098 94.405502,81.211494 94.895935,81.419891 
	C94.787094,83.450798 94.678246,85.481697 94.569405,87.512604 
	C94.930000,87.718559 95.290588,87.924522 95.651184,88.130486 
	C96.424614,87.272278 97.807632,86.445335 97.853584,85.549797 
	C97.976044,83.162872 98.024826,78.892624 97.209709,78.672066 
	C94.158569,77.846481 90.750046,78.341728 87.156387,78.341728 
	C87.320160,77.594818 87.713326,75.801727 88.106499,74.008644 
	C87.752281,73.706963 87.398071,73.405281 87.043854,73.103607 
	C86.093773,74.109032 84.728630,74.960838 84.286850,76.154404 
	C83.547760,78.151192 83.708359,80.499992 82.873726,82.434639 
	C82.435234,83.451042 80.689049,83.903297 79.533371,84.610298 
	C79.045937,83.528748 78.108276,82.424316 78.161835,81.370247 
	C78.285316,78.939575 78.890060,76.533348 79.299553,74.117203 
	C78.953407,73.819031 78.607269,73.520859 78.261124,73.222687 
	C77.252892,74.014870 75.678986,74.623489 75.350349,75.636200 
	C74.590034,77.979187 73.746399,80.668205 74.242157,82.930817 
	C74.658623,84.831566 76.700676,87.371941 78.421738,87.734001 
	C80.481529,88.167320 82.943367,86.493340 85.281876,85.951210 
	C85.795456,85.832138 86.523010,86.636078 87.155991,87.491333 
	C87.155991,87.491333 87.496437,87.824471 87.496437,87.824471 
	C87.496437,87.824471 87.966812,87.749420 88.659409,87.885735 
M272.212585,49.624950 
	C272.151855,50.417915 272.091125,51.210876 271.723022,52.726521 
	C270.903748,57.300056 270.084473,61.873592 269.228760,66.650513 
	C274.931091,66.650513 279.978607,66.650513 285.669342,66.797394 
	C286.103668,66.748161 286.537994,66.698936 287.607635,66.837914 
	C288.272797,66.211502 288.937958,65.585091 289.863251,64.155251 
	C290.771790,59.079311 291.786438,54.019581 292.564880,48.923771 
	C293.843628,40.552998 295.631226,32.185886 295.975372,23.766994 
	C296.328094,15.138183 287.593506,8.733468 279.124725,8.757996 
	C271.499725,8.780080 265.366882,11.613215 259.513092,15.719205 
	C250.318527,6.129185 241.057434,5.956521 225.290665,15.014090 
	C225.230362,13.969427 225.174332,12.998542 225.124939,11.423154 
	C224.758835,11.325035 224.392731,11.226916 223.101456,10.996691 
	C218.723953,11.047371 214.346451,11.098051 209.161026,11.017228 
	C208.521637,12.627381 207.882233,14.237535 206.956253,16.525209 
	C204.932907,28.337458 202.909576,40.149708 200.476013,52.603981 
	C199.670807,57.160011 198.865616,61.716042 198.001251,66.606888 
	C204.826675,66.606888 211.261459,66.606888 218.281525,66.606888 
	C218.773132,63.457104 219.278473,60.219318 220.032120,56.200821 
	C221.393478,48.496475 222.714905,40.784779 224.131470,33.090595 
	C224.956039,28.611830 231.409164,24.556772 236.099609,25.607172 
	C241.658920,26.852154 240.425888,31.103800 239.852524,34.835159 
	C238.614807,42.890251 237.206650,50.919155 235.484802,59.478809 
	C235.393982,60.324951 235.303162,61.171093 234.985474,62.648609 
	C234.970779,63.092678 234.956085,63.536747 234.622925,64.538132 
	C235.425064,65.242744 236.227188,65.947357 237.758667,66.798347 
	C238.497147,66.748795 239.235641,66.699242 240.890564,66.842461 
	C244.381882,66.857414 247.883270,67.025917 251.358704,66.798279 
	C252.471252,66.725403 253.515137,65.604218 254.860291,64.161499 
	C256.666962,53.833267 258.450592,43.500923 260.290070,33.178535 
	C261.214813,27.989294 266.122223,24.511379 271.117310,25.635359 
	C277.069611,26.974726 275.223785,31.557625 274.791626,35.340248 
	C274.320465,39.464127 273.516846,43.550018 272.575043,48.013195 
	C272.430145,48.306015 272.422180,48.602463 272.212585,49.624950 
M170.275650,49.575596 
	C165.870117,46.821835 164.765045,42.868221 165.786942,37.947845 
	C167.117142,31.542995 171.008392,26.981781 177.217896,26.304090 
	C183.577454,25.610025 190.143402,26.807192 197.234146,27.211645 
	C197.685440,24.681837 198.444565,20.633659 199.121323,16.571756 
	C199.739548,12.861034 198.232727,10.920671 194.470490,9.822542 
	C168.452164,2.228248 142.739380,21.368160 144.819168,45.675266 
	C145.769699,56.784199 148.852737,62.984283 158.880066,66.512100 
	C169.078918,70.100266 179.207855,68.725456 189.203415,65.455536 
	C190.027863,65.185822 191.124710,64.380241 191.279037,63.650967 
	C192.346497,58.607006 193.197449,53.517231 194.208206,47.944492 
	C186.033890,50.894192 178.688004,52.848667 170.275650,49.575596 
z"/>
<path fill="#445679" opacity="1.000000" stroke="none" 
	d="
M209.968964,11.148733 
	C214.346451,11.098051 218.723953,11.047371 223.690765,11.271365 
	C224.513260,11.786995 224.792664,11.947534 225.118286,12.027657 
	C225.174332,12.998542 225.230362,13.969427 225.290665,15.014090 
	C241.057434,5.956521 250.318527,6.129185 259.513092,15.719205 
	C265.366882,11.613215 271.499725,8.780080 279.124725,8.757996 
	C287.593506,8.733468 296.328094,15.138183 295.975372,23.766994 
	C295.631226,32.185886 293.843628,40.552998 292.564880,48.923771 
	C291.786438,54.019581 290.771790,59.079311 289.437256,64.572891 
	C288.331604,65.543594 287.651978,66.096657 286.972321,66.649719 
	C286.537994,66.698936 286.103668,66.748161 285.208923,66.365250 
	C280.312347,65.438828 275.876221,64.944550 272.030365,64.516037 
	C272.030365,60.167557 272.030365,56.085697 272.030365,52.003841 
	C272.091125,51.210876 272.151855,50.417915 272.513428,49.082584 
	C272.932465,48.249454 272.947083,47.953537 272.858154,47.652470 
	C273.516846,43.550018 274.320465,39.464127 274.791626,35.340248 
	C275.223785,31.557625 277.069611,26.974726 271.117310,25.635359 
	C266.122223,24.511379 261.214813,27.989294 260.290070,33.178535 
	C258.450592,43.500923 256.666962,53.833267 254.287598,64.580925 
	C251.292435,65.008232 248.845871,64.808174 246.454544,65.085152 
	C244.263397,65.338959 242.131897,66.107788 239.974121,66.649689 
	C239.235641,66.699242 238.497147,66.748795 237.342987,66.431839 
	C236.265350,65.370491 235.603378,64.675652 234.941406,63.980812 
	C234.956085,63.536747 234.970779,63.092678 235.408691,62.265156 
	C235.844025,60.907394 235.856140,59.933086 235.868225,58.958778 
	C237.206650,50.919155 238.614807,42.890251 239.852524,34.835159 
	C240.425888,31.103800 241.658920,26.852154 236.099609,25.607172 
	C231.409164,24.556772 224.956039,28.611830 224.131470,33.090595 
	C222.714905,40.784779 221.393478,48.496475 219.556061,56.693192 
	C218.538788,58.840458 218.200836,60.604542 217.389648,62.114372 
	C216.782364,63.244690 215.611969,64.805237 214.611832,64.866768 
	C209.898438,65.156761 205.157318,64.995964 200.886230,64.995964 
	C200.886230,60.158833 200.886230,56.060394 200.886230,51.961956 
	C202.909576,40.149708 204.932907,28.337458 207.462769,16.117203 
	C208.635834,14.189044 209.302399,12.668890 209.968964,11.148733 
z"/>
<path fill="#455679" opacity="1.000000" stroke="none" 
	d="
M114.993881,61.913769 
	C114.993881,61.913769 114.646980,62.096149 114.068542,62.079613 
	C112.715752,62.780025 111.941406,63.496971 111.167053,64.213921 
	C111.167053,64.213921 111.005234,64.080383 110.766571,64.104141 
	C110.081787,64.527306 109.635658,64.926704 109.189529,65.326111 
	C109.189529,65.326111 109.094002,65.179558 108.783722,65.149551 
	C106.643761,65.991745 104.814095,66.863945 102.984421,67.736145 
	C99.036819,67.809433 95.004478,68.436119 91.158287,67.847168 
	C81.508278,66.369545 76.426376,57.475765 78.338242,45.969463 
	C79.674866,37.925121 81.216454,29.914862 82.662964,21.888744 
	C83.364372,17.996893 84.057701,14.103586 84.758751,10.188303 
	C91.612175,10.188303 97.916725,10.188303 104.834740,10.188303 
	C103.040565,20.473257 101.301483,30.534582 99.525734,40.589432 
	C98.337700,47.316383 99.713989,50.341007 104.415047,51.159039 
	C110.331917,52.188637 116.327019,48.594067 117.370369,43.240433 
	C118.452873,37.685932 119.352585,32.096004 120.356918,26.526018 
	C121.324997,21.157171 122.324600,15.794010 123.331589,10.312761 
	C130.093338,10.312761 136.511292,10.312761 143.421738,10.312761 
	C140.207565,28.490433 137.053131,46.330231 133.332397,64.583923 
	C129.433792,65.006081 126.101410,65.000961 122.769272,65.027138 
	C120.426346,65.045532 118.159325,65.381363 117.647018,61.919903 
	C117.400780,60.256218 115.905807,59.033970 114.993881,61.913769 
z"/>
<path fill="#455679" opacity="1.000000" stroke="none" 
	d="
M170.633118,49.757980 
	C178.688004,52.848667 186.033890,50.894192 194.208206,47.944492 
	C193.197449,53.517231 192.346497,58.607006 191.279037,63.650967 
	C191.124710,64.380241 190.027863,65.185822 189.203415,65.455536 
	C179.207855,68.725456 169.078918,70.100266 158.880066,66.512100 
	C148.852737,62.984283 145.769699,56.784199 144.819168,45.675266 
	C142.739380,21.368160 168.452164,2.228248 194.470490,9.822542 
	C198.232727,10.920671 199.739548,12.861034 199.121323,16.571756 
	C198.444565,20.633659 197.685440,24.681837 197.234146,27.211645 
	C190.143402,26.807192 183.577454,25.610025 177.217896,26.304090 
	C171.008392,26.981781 167.117142,31.542995 165.786942,37.947845 
	C164.765045,42.868221 165.870117,46.821835 170.633118,49.757980 
z"/>
<path fill="#4D5D7E" opacity="1.000000" stroke="none" 
	d="
M65.937035,8.544685 
	C75.446014,8.644385 77.598297,13.624107 76.421486,19.753605 
	C72.602943,39.642853 69.279015,59.627415 65.815651,79.584129 
	C65.296463,82.575813 64.885078,85.919930 61.138622,85.920830 
	C59.373127,85.921257 57.431934,84.145485 55.875980,82.816689 
	C52.024437,79.527412 48.349052,76.031853 44.097656,72.132210 
	C33.275959,71.426712 22.959858,71.182541 12.642371,71.035751 
	C11.767276,71.023300 10.882922,71.661591 10.002872,71.997574 
	C5.240976,70.918709 3.355445,67.572906 4.082703,63.158215 
	C6.588499,47.947212 9.267229,32.761738 12.144157,17.616703 
	C12.966610,13.287060 16.008732,10.383452 20.921570,9.272003 
	C35.764874,9.724443 49.959663,9.871968 64.154793,9.922809 
	C64.747223,9.924931 65.342880,9.024591 65.937035,8.544685 
M24.268911,15.706357 
	C22.593725,16.904505 19.722095,17.864885 19.429390,19.337772 
	C16.660433,33.271111 14.246255,47.278343 12.021965,61.310589 
	C11.828441,62.531460 13.718573,64.082626 15.221989,66.219849 
	C15.823071,66.467400 16.422783,66.926857 17.025440,66.930763 
	C26.326077,66.990883 35.627712,67.045105 44.927246,66.938210 
	C46.073738,66.925034 47.209507,65.979187 49.075436,65.304382 
	C52.290588,68.172592 55.505745,71.040794 58.777817,73.959785 
	C59.107304,73.367928 59.358482,73.097717 59.413364,72.792244 
	C62.574921,55.194492 65.752861,37.599461 68.800995,19.981981 
	C69.028824,18.665165 68.316452,17.185678 67.763206,15.040257 
	C66.900757,14.691993 66.039925,14.045071 65.175606,14.040377 
	C52.730980,13.972808 40.285648,13.960448 27.841362,14.052775 
	C26.910809,14.059680 25.986916,14.963890 24.268911,15.706357 
z"/>
<path fill="#4D5B7A" opacity="1.000000" stroke="none" 
	d="
M158.420593,87.133064 
	C157.708221,86.506355 156.995850,85.879646 156.080536,85.074402 
	C153.813232,89.080544 150.235245,88.879768 146.712936,87.006721 
	C143.481186,85.288193 143.533768,82.234917 144.709091,79.159615 
	C146.362137,74.834320 149.752914,73.073837 154.132202,73.394333 
	C155.258606,73.476776 156.288437,74.878769 157.362625,75.674568 
	C157.088608,76.103188 156.814606,76.531807 156.540604,76.960426 
	C155.424606,76.899216 154.058624,76.400154 153.243332,76.865639 
	C151.403610,77.916023 149.626541,79.275398 148.320007,80.906403 
	C148.029556,81.269005 149.612595,84.138771 150.636658,84.344795 
	C152.987686,84.817787 156.037125,85.752632 156.993912,81.825172 
	C157.242844,80.803383 158.285004,79.974823 159.631775,78.985931 
	C160.864258,78.625534 161.427811,78.336731 161.991348,78.047920 
	C164.185638,78.835037 166.379929,79.622154 168.630585,80.429497 
	C168.608978,77.512680 171.529282,78.086212 174.602722,78.403954 
	C175.335281,79.098663 175.631546,79.541466 175.927811,79.984268 
	C175.977600,80.165604 176.027405,80.346931 176.026550,80.776199 
	C175.975906,81.024155 176.018478,80.982147 176.018478,80.982147 
	C174.642914,82.236824 173.200012,83.427010 171.914978,84.768417 
	C171.031082,85.691101 170.366119,86.823532 169.603287,87.862213 
	C168.862091,86.876274 168.120895,85.890343 167.375641,84.898994 
	C166.399063,85.618195 164.999435,86.648949 162.960327,87.479881 
	C161.020752,87.231056 159.720673,87.182060 158.420593,87.133064 
M162.212921,83.511383 
	C162.558136,83.778862 162.903336,84.046333 163.248550,84.313805 
	C163.362122,84.109344 163.475693,83.904877 163.589264,83.700417 
	C163.076279,83.450714 162.563278,83.201019 161.934341,82.353867 
	C161.221756,82.208855 160.511688,82.014359 159.793610,81.978004 
	C159.697845,81.973160 159.561523,82.769897 159.444000,83.195427 
	C160.284821,83.145782 161.125641,83.096130 162.212921,83.511383 
z"/>
<path fill="#4E5C7A" opacity="1.000000" stroke="none" 
	d="
M87.152031,87.014969 
	C86.523010,86.636078 85.795456,85.832138 85.281876,85.951210 
	C82.943367,86.493340 80.481529,88.167320 78.421738,87.734001 
	C76.700676,87.371941 74.658623,84.831566 74.242157,82.930817 
	C73.746399,80.668205 74.590034,77.979187 75.350349,75.636200 
	C75.678986,74.623489 77.252892,74.014870 78.261124,73.222687 
	C78.607269,73.520859 78.953407,73.819031 79.299553,74.117203 
	C78.890060,76.533348 78.285316,78.939575 78.161835,81.370247 
	C78.108276,82.424316 79.045937,83.528748 79.533371,84.610306 
	C80.689049,83.903297 82.435234,83.451042 82.873726,82.434639 
	C83.708359,80.499992 83.547760,78.151192 84.286850,76.154404 
	C84.728630,74.960838 86.093773,74.109032 87.043854,73.103607 
	C87.398071,73.405281 87.752281,73.706963 88.106499,74.008644 
	C87.713326,75.801727 87.320160,77.594818 87.156387,78.341728 
	C90.750046,78.341728 94.158569,77.846481 97.209709,78.672066 
	C98.024826,78.892624 97.976044,83.162872 97.853584,85.549797 
	C97.807632,86.445335 96.424614,87.272278 95.651184,88.130486 
	C95.290588,87.924522 94.930000,87.718559 94.569405,87.512604 
	C94.678246,85.481697 94.787094,83.450798 94.895935,81.419891 
	C94.405502,81.211494 93.915062,81.003098 93.424629,80.794693 
	C92.678299,82.633438 91.931976,84.472183 90.856476,86.733292 
	C90.318382,87.279358 90.157562,87.448746 90.044853,87.663818 
	C89.583038,87.737793 89.121223,87.811760 88.215286,87.657074 
	C87.603477,87.232681 87.397095,87.094864 87.152031,87.014969 
z"/>
<path fill="#515E7C" opacity="1.000000" stroke="none" 
	d="
M119.001808,78.226761 
	C122.755844,77.728630 126.993637,76.386932 126.646286,83.880814 
	C129.133041,79.738449 131.143280,76.234993 135.250778,77.990311 
	C136.662720,76.023460 137.708740,74.566330 138.754761,73.109200 
	C139.323257,73.368286 139.891769,73.627373 140.460266,73.886467 
	C139.704437,78.358047 138.948624,82.829628 138.033951,88.241081 
	C134.454208,87.538460 131.155563,86.891014 127.195587,86.330460 
	C126.307953,86.848068 126.081665,87.278786 125.855385,87.709488 
	C124.152481,87.762451 122.449585,87.815407 120.414978,87.522491 
	C120.180962,86.286911 120.278648,85.397202 120.376343,84.507477 
	C119.800873,84.485184 119.225410,84.462883 118.649933,84.440582 
	C118.761658,85.593895 118.873375,86.747192 118.985107,87.900497 
	C117.543282,87.767403 116.101456,87.634300 114.330109,87.191032 
	C114.603294,84.930489 115.205994,82.980118 115.808701,81.029747 
	C115.727913,81.920143 115.647125,82.810547 115.565735,83.707573 
	C117.477180,83.120659 119.368423,82.539948 121.671783,82.314270 
	C122.523842,82.923599 122.963768,83.177887 123.403694,83.432175 
	C123.239281,82.940422 123.074867,82.448677 122.910461,81.956924 
	C121.690323,81.184685 120.470177,80.412453 119.123093,79.136230 
	C118.996147,78.632240 119.001808,78.226761 119.001808,78.226761 
z"/>
<path fill="#4B5A7A" opacity="1.000000" stroke="none" 
	d="
M255.014069,82.378967 
	C253.906265,84.364014 252.798462,86.349060 251.690659,88.334099 
	C251.182129,88.096886 250.673599,87.859673 250.165070,87.622459 
	C250.165070,86.039078 250.165070,84.455688 250.165070,82.233063 
	C248.486298,83.427635 247.292984,84.276756 245.860886,85.295807 
	C244.781219,84.085800 243.871063,83.065765 243.103088,82.205078 
	C241.917999,84.024010 240.787552,85.759056 239.657104,87.494110 
	C239.066849,87.220108 238.476593,86.946106 237.886337,86.672104 
	C238.436554,83.329330 238.879196,79.963203 239.597137,76.656837 
	C239.838196,75.546646 240.780045,74.588623 241.401596,73.561050 
	C242.524200,74.311707 243.838272,74.889915 244.714325,75.862633 
	C245.552094,76.792839 245.934341,78.133293 246.628845,79.516579 
	C249.164871,77.460487 251.523163,75.548500 255.266449,72.513626 
	C255.005234,76.505531 254.835220,79.103683 254.832062,82.077057 
	C254.998901,82.452286 255.014053,82.378960 255.014069,82.378967 
z"/>
<path fill="#4F5D7B" opacity="1.000000" stroke="none" 
	d="
M115.913971,80.633430 
	C115.205994,82.980118 114.603294,84.930489 114.001167,87.254593 
	C110.674843,87.034790 106.333885,90.101181 104.285187,84.959633 
	C104.065018,84.407082 104.182526,83.719978 104.545959,82.772766 
	C104.948524,82.450249 105.015686,82.071991 105.015686,82.071991 
	C105.890068,77.777206 109.118561,77.646034 111.728264,77.878906 
	C113.381393,76.039787 114.656624,74.621086 115.931862,73.202377 
	C116.301796,73.507225 116.671722,73.812080 117.041656,74.116928 
	C116.700851,76.156990 116.360046,78.197052 115.913971,80.633430 
z"/>
<path fill="#56637F" opacity="1.000000" stroke="none" 
	d="
M222.045715,81.894943 
	C222.704788,81.423561 223.828293,81.047523 223.947784,80.465401 
	C224.744949,76.581963 227.872864,77.585373 229.908463,78.109703 
	C231.153976,78.430519 232.188950,80.744614 232.708099,82.359726 
	C233.174164,83.809608 232.806290,85.527557 232.806290,88.022934 
	C229.405380,87.689865 226.035568,87.359840 222.168121,86.613663 
	C221.795563,84.763313 221.920639,83.329132 222.045715,81.894943 
z"/>
<path fill="#4C5B7A" opacity="1.000000" stroke="none" 
	d="
M255.129135,82.776337 
	C255.014053,82.378960 254.998901,82.452286 254.979187,82.484024 
	C259.141541,76.778870 262.592316,76.202827 266.631714,80.751495 
	C266.935577,80.884949 266.895966,80.830177 266.895966,80.830170 
	C266.038300,82.751640 265.627655,85.124123 264.234314,86.505104 
	C260.840332,89.869057 256.568024,88.143257 255.129135,82.776337 
z"/>
<path fill="#4C5A78" opacity="1.000000" stroke="none" 
	d="
M187.001419,84.895508 
	C185.766113,85.651085 184.603271,86.580292 183.282669,87.131546 
	C178.133728,89.280838 175.824966,87.566826 176.000229,81.406509 
	C176.018478,80.982147 175.975906,81.024155 175.960037,81.050308 
	C181.417328,76.142502 184.967026,76.509972 186.963074,82.916367 
	C187.002182,84.044945 187.001801,84.470230 187.001419,84.895508 
z"/>
<path fill="#525F7D" opacity="1.000000" stroke="none" 
	d="
M197.160797,85.409973 
	C199.547470,83.911919 201.934143,82.413864 204.134415,81.032806 
	C203.268845,80.940857 201.862976,80.791504 200.457108,80.642159 
	C200.312973,80.206856 200.168839,79.771553 200.024704,79.336250 
	C201.840988,78.833229 203.656860,77.925514 205.473633,77.923759 
	C208.079742,77.921257 208.080017,78.203377 208.993301,88.442467 
	C205.049072,87.556602 201.419830,86.741493 197.416122,85.928696 
	C197.021255,85.743568 197.060959,85.569893 197.160797,85.409973 
z"/>
<path fill="#364A6D" opacity="1.000000" stroke="none" 
	d="
M65.482819,8.445090 
	C65.342880,9.024591 64.747223,9.924931 64.154793,9.922809 
	C49.959663,9.871968 35.764874,9.724443 21.281700,9.289589 
	C21.321922,8.871160 21.650471,8.757609 22.547626,8.790136 
	C23.715010,8.801808 24.313784,8.667402 24.912560,8.532996 
	C38.284576,8.470495 51.656593,8.407994 65.482819,8.445090 
z"/>
<path fill="#54627C" opacity="1.000000" stroke="none" 
	d="
M200.681122,52.282967 
	C200.886230,56.060394 200.886230,60.158833 200.886230,64.995964 
	C205.157318,64.995964 209.898438,65.156761 214.611832,64.866768 
	C215.611969,64.805237 216.782364,63.244690 217.389648,62.114372 
	C218.200836,60.604542 218.538788,58.840458 219.431900,57.083549 
	C219.278473,60.219318 218.773132,63.457104 218.281525,66.606888 
	C211.261459,66.606888 204.826675,66.606888 198.001251,66.606888 
	C198.865616,61.716042 199.670807,57.160011 200.681122,52.282967 
z"/>
<path fill="#4C5A79" opacity="1.000000" stroke="none" 
	d="
M197.412231,85.052689 
	C197.060959,85.569893 197.021255,85.743568 197.064148,86.065582 
	C196.340179,86.874954 195.593735,87.549751 194.056763,88.939194 
	C194.056763,85.469765 194.056763,83.313293 194.056763,81.156822 
	C193.576218,81.007523 193.095673,80.858223 192.615143,80.708931 
	C191.817581,82.845581 191.020035,84.982231 189.935226,87.888428 
	C189.026520,86.836685 188.317490,86.016029 187.304932,85.045441 
	C187.001801,84.470230 187.002182,84.044945 187.004181,83.300705 
	C187.694199,81.464653 188.382584,79.947556 189.119812,78.322838 
	C190.757935,78.197807 192.452393,78.068481 194.721375,78.262207 
	C196.132278,80.046478 196.968689,81.507690 197.805099,82.968895 
	C197.757950,83.544395 197.710800,84.119896 197.412231,85.052689 
z"/>
<path fill="#364569" opacity="1.000000" stroke="none" 
	d="
M10.384888,72.154221 
	C10.882922,71.661591 11.767276,71.023300 12.642371,71.035751 
	C22.959858,71.182541 33.275959,71.426712 43.753624,71.971375 
	C32.865517,72.301956 21.816210,72.306412 10.384888,72.154221 
z"/>
<path fill="#4F5C79" opacity="1.000000" stroke="none" 
	d="
M266.955688,80.912140 
	C267.731354,79.966400 268.486969,78.993477 269.242554,78.020546 
	C270.110168,79.419907 270.977814,80.819275 271.810730,82.162682 
	C272.990356,81.175926 274.561432,79.861725 276.132538,78.547516 
	C276.452820,78.867249 276.773132,79.186989 277.093445,79.506721 
	C276.756470,80.379791 276.615936,81.418533 276.045593,82.094757 
	C274.357971,84.095650 272.500671,85.953392 270.709747,87.867126 
	C269.672363,85.655502 268.634949,83.443871 267.246765,81.031204 
	C266.895966,80.830177 266.935577,80.884949 266.955688,80.912140 
z"/>
<path fill="#4D5B7A" opacity="1.000000" stroke="none" 
	d="
M282.024536,85.931313 
	C282.847870,82.689003 283.565918,79.414406 284.545746,76.220100 
	C284.944092,74.921417 285.911560,73.797279 286.620056,72.593712 
	C287.211365,72.834015 287.802673,73.074318 288.393982,73.314621 
	C287.656403,77.603210 287.137665,81.945831 286.097229,86.159653 
	C285.495148,88.597984 283.915985,88.764297 282.290924,86.150642 
	C282.039154,85.880005 282.024536,85.931313 282.024536,85.931313 
z"/>
<path fill="#54637E" opacity="1.000000" stroke="none" 
	d="
M271.876709,52.365181 
	C272.030365,56.085697 272.030365,60.167557 272.030365,64.516037 
	C275.876221,64.944550 280.312347,65.438828 284.887268,66.291809 
	C279.978607,66.650513 274.931091,66.650513 269.228760,66.650513 
	C270.084473,61.873592 270.903748,57.300056 271.876709,52.365181 
z"/>
<path fill="#54617C" opacity="1.000000" stroke="none" 
	d="
M115.365082,62.110668 
	C115.905807,59.033970 117.400780,60.256218 117.647018,61.919903 
	C118.159325,65.381363 120.426346,65.045532 122.769272,65.027138 
	C126.101410,65.000961 129.433792,65.006081 133.210037,64.983620 
	C132.924347,65.608063 132.211914,66.775513 131.462280,66.799919 
	C126.422012,66.964012 121.373848,66.885361 116.165367,66.885361 
	C116.001083,65.132652 115.868683,63.720108 115.365082,62.110668 
z"/>
<path fill="#4A5675" opacity="1.000000" stroke="none" 
	d="
M222.034424,81.468338 
	C221.920639,83.329132 221.795563,84.763313 221.804016,86.474159 
	C220.671448,87.194481 219.405365,87.638153 217.469757,88.316429 
	C217.816742,85.781197 218.035828,84.180367 218.515594,81.981796 
	C218.536835,80.727242 218.297409,80.070442 218.057983,79.413635 
	C217.697678,80.206085 217.337372,80.998543 216.977066,81.790993 
	C216.540756,81.863312 216.104446,81.935623 215.327820,81.635864 
	C215.015808,80.439026 215.044113,79.614273 215.072418,78.789513 
	C217.787262,78.312172 221.323471,75.299919 222.034424,81.468338 
z"/>
<path fill="#596581" opacity="1.000000" stroke="none" 
	d="
M104.608490,81.991562 
	C105.015686,82.071991 104.948524,82.450249 104.891541,82.517227 
	C104.214066,83.631439 103.705162,84.770264 102.941826,85.700256 
	C102.171532,86.638718 101.148834,87.370010 100.236725,88.192070 
	C99.907860,87.906853 99.578987,87.621635 99.250122,87.336418 
	C99.519058,85.428223 99.558678,83.447266 100.133385,81.636101 
	C100.552788,80.314384 101.677162,79.216370 102.487274,78.018646 
	C103.058617,79.316139 103.629951,80.613640 104.608490,81.991562 
z"/>
<path fill="#535F7C" opacity="1.000000" stroke="none" 
	d="
M282.062653,85.867142 
	C280.946930,86.644157 279.807678,87.434036 277.545502,89.002518 
	C278.036102,84.054420 277.823639,80.416946 280.204651,77.783112 
	C280.884918,78.004440 281.565186,78.225777 282.245453,78.447105 
	C281.973267,80.703583 281.701080,82.960068 281.726715,85.573929 
	C282.024536,85.931313 282.039154,85.880005 282.062653,85.867142 
z"/>
<path fill="#586581" opacity="1.000000" stroke="none" 
	d="
M214.682129,78.596527 
	C215.044113,79.614273 215.015808,80.439026 214.998840,81.573830 
	C214.365479,83.304291 213.720795,84.724709 213.076126,86.145126 
	C212.655624,86.211769 212.235123,86.278404 211.814621,86.345047 
	C211.542297,84.187134 211.036560,82.015945 211.157944,79.880409 
	C211.189194,79.330528 213.193787,78.892807 214.682129,78.596527 
z"/>
<path fill="#54627E" opacity="1.000000" stroke="none" 
	d="
M240.432343,66.746078 
	C242.131897,66.107788 244.263397,65.338959 246.454544,65.085152 
	C248.845871,64.808174 251.292435,65.008232 254.152679,64.981506 
	C253.515137,65.604218 252.471252,66.725403 251.358704,66.798279 
	C247.883270,67.025917 244.381882,66.857414 240.432343,66.746078 
z"/>
<path fill="#54617C" opacity="1.000000" stroke="none" 
	d="
M103.331993,67.759689 
	C104.814095,66.863945 106.643761,65.991745 108.857498,65.196533 
	C107.387573,66.110085 105.533569,66.946655 103.331993,67.759689 
z"/>
<path fill="#4F5D7B" opacity="1.000000" stroke="none" 
	d="
M119.242477,87.955994 
	C118.873375,86.747192 118.761658,85.593895 118.649933,84.440582 
	C119.225410,84.462883 119.800873,84.485184 120.376343,84.507477 
	C120.278648,85.397202 120.180962,86.286911 120.041443,87.511063 
	C119.833023,87.900826 119.666443,87.956154 119.242477,87.955994 
z"/>
<path fill="#525F7D" opacity="1.000000" stroke="none" 
	d="
M197.931976,82.585464 
	C196.968689,81.507690 196.132278,80.046478 195.148132,78.293854 
	C198.186401,77.824455 198.336044,79.857826 197.931976,82.585464 
z"/>
<path fill="#54627E" opacity="1.000000" stroke="none" 
	d="
M234.782166,64.259476 
	C235.603378,64.675652 236.265350,65.370491 236.978317,66.358658 
	C236.227188,65.947357 235.425064,65.242744 234.782166,64.259476 
z"/>
<path fill="#586581" opacity="1.000000" stroke="none" 
	d="
M217.330444,81.834549 
	C217.337372,80.998543 217.697678,80.206085 218.057983,79.413635 
	C218.297409,80.070442 218.536835,80.727242 218.584717,81.599899 
	C218.156723,81.836548 217.920273,81.857330 217.330444,81.834549 
z"/>
<path fill="#54637E" opacity="1.000000" stroke="none" 
	d="
M287.289978,66.743820 
	C287.651978,66.096657 288.331604,65.543594 289.307190,64.974609 
	C288.937958,65.585091 288.272797,66.211502 287.289978,66.743820 
z"/>
<path fill="#54627E" opacity="1.000000" stroke="none" 
	d="
M235.676514,59.218796 
	C235.856140,59.933086 235.844025,60.907394 235.522125,61.949467 
	C235.303162,61.171093 235.393982,60.324951 235.676514,59.218796 
z"/>
<path fill="#3A4D70" opacity="1.000000" stroke="none" 
	d="
M209.565002,11.082981 
	C209.302399,12.668890 208.635834,14.189044 207.606049,15.778443 
	C207.882233,14.237535 208.521637,12.627381 209.565002,11.082981 
z"/>
<path fill="#54617C" opacity="1.000000" stroke="none" 
	d="
M111.480919,64.150986 
	C111.941406,63.496971 112.715752,62.780025 113.872734,62.087296 
	C113.435173,62.770363 112.614983,63.429203 111.480919,64.150986 
z"/>
<path fill="#515E7C" opacity="1.000000" stroke="none" 
	d="
M122.679504,81.973923 
	C123.074867,82.448677 123.239281,82.940422 123.403694,83.432175 
	C122.963768,83.177887 122.523842,82.923599 122.042641,82.390427 
	C122.001373,82.111534 122.448555,81.990929 122.679504,81.973923 
z"/>
<path fill="#4E5C7A" opacity="1.000000" stroke="none" 
	d="
M158.720474,87.405624 
	C159.720673,87.182060 161.020752,87.231056 162.628372,87.511124 
	C161.630722,87.720856 160.325546,87.699516 158.720474,87.405624 
z"/>
<path fill="#4C5A78" opacity="1.000000" stroke="none" 
	d="
M176.023499,79.646774 
	C175.631546,79.541466 175.335281,79.098663 175.019165,78.376862 
	C175.372604,78.501686 175.745895,78.905487 176.023499,79.646774 
z"/>
<path fill="#4E5C7A" opacity="1.000000" stroke="none" 
	d="
M161.664154,78.020393 
	C161.427811,78.336731 160.864258,78.625534 159.965744,78.894333 
	C160.199509,78.580513 160.768234,78.286690 161.664154,78.020393 
z"/>
<path fill="#54617C" opacity="1.000000" stroke="none" 
	d="
M109.490631,65.286530 
	C109.635658,64.926704 110.081787,64.527306 110.858582,64.154526 
	C110.723404,64.536400 110.257568,64.891670 109.490631,65.286530 
z"/>
<path fill="#515E7C" opacity="1.000000" stroke="none" 
	d="
M126.091827,87.698761 
	C126.081665,87.278786 126.307953,86.848068 126.854706,86.233246 
	C126.892876,86.595428 126.610573,87.141731 126.091827,87.698761 
z"/>
<path fill="#4D5D7E" opacity="1.000000" stroke="none" 
	d="
M24.613535,8.411142 
	C24.313784,8.667402 23.715010,8.801808 22.805447,8.847191 
	C23.101274,8.601874 23.707893,8.445582 24.613535,8.411142 
z"/>
<path fill="#515E7C" opacity="1.000000" stroke="none" 
	d="
M118.760117,78.190659 
	C119.001808,78.226761 118.996147,78.632240 118.991096,78.834961 
	C118.724541,78.867081 118.463036,78.696472 118.201523,78.525864 
	C118.307159,78.402092 118.412788,78.278328 118.760117,78.190659 
z"/>
<path fill="#54637E" opacity="1.000000" stroke="none" 
	d="
M272.716614,47.832832 
	C272.947083,47.953537 272.932465,48.249454 272.682709,48.721382 
	C272.422180,48.602463 272.430145,48.306015 272.716614,47.832832 
z"/>
<path fill="#3A4D70" opacity="1.000000" stroke="none" 
	d="
M225.121613,11.725405 
	C224.792664,11.947534 224.513260,11.786995 224.153351,11.337419 
	C224.392731,11.226916 224.758835,11.325035 225.121613,11.725405 
z"/>
<path fill="#4F5D7B" opacity="1.000000" stroke="none" 
	d="
M87.154007,87.253151 
	C87.397095,87.094864 87.603477,87.232681 87.868988,87.588913 
	C87.966812,87.749420 87.496437,87.824471 87.496437,87.824471 
	C87.496437,87.824471 87.155991,87.491333 87.154007,87.253151 
z"/>
<path fill="#4F5D7B" opacity="1.000000" stroke="none" 
	d="
M90.261650,87.705566 
	C90.157562,87.448746 90.318382,87.279358 90.690155,87.086380 
	C90.921677,87.359802 90.796822,87.603203 90.261650,87.705566 
z"/>
<path fill="#FCFCFC" opacity="1.000000" stroke="none" 
	d="
M14.640848,65.480370 
	C13.718573,64.082626 11.828441,62.531460 12.021965,61.310589 
	C14.246255,47.278343 16.660433,33.271111 19.429390,19.337772 
	C19.722095,17.864885 22.593725,16.904505 25.120373,15.671412 
	C39.994942,15.684915 54.018047,15.733364 68.041153,15.781813 
	C68.316452,17.185678 69.028824,18.665165 68.800995,19.981981 
	C65.752861,37.599461 62.574921,55.194492 59.413364,72.792244 
	C59.358482,73.097717 59.107304,73.367928 58.777817,73.959785 
	C55.505745,71.040794 52.290588,68.172592 48.267410,65.287567 
	C36.519875,65.340622 25.580360,65.410500 14.640848,65.480370 
M32.939404,50.087326 
	C32.677753,51.853981 32.416107,53.620640 32.113892,55.661217 
	C35.996838,55.661217 39.539879,55.661217 43.232170,55.661217 
	C43.943581,52.212708 44.600044,49.030529 45.221878,46.016228 
	C56.661236,45.186344 57.463562,44.350113 56.596367,34.114319 
	C53.596069,34.114319 50.540668,34.114319 47.314327,34.114319 
	C47.841080,30.487015 48.283562,27.440029 48.781570,24.010662 
	C45.552940,24.010662 42.715332,23.782257 39.949406,24.127743 
	C38.903751,24.258354 37.452446,25.553453 37.159798,26.592104 
	C35.094162,33.923431 35.174835,33.940456 27.504183,34.276432 
	C26.862627,34.304535 26.227585,34.481346 25.299599,34.638012 
	C24.735836,38.217224 24.184120,41.719967 23.547880,45.759315 
	C26.333937,45.759315 28.472189,45.866821 30.595196,45.732788 
	C33.408173,45.555195 33.537220,47.098305 32.939404,50.087326 
z"/>
<path fill="#364967" opacity="1.000000" stroke="none" 
	d="
M67.902176,15.411036 
	C54.018047,15.733364 39.994942,15.684915 25.515881,15.543718 
	C25.986916,14.963890 26.910809,14.059680 27.841362,14.052775 
	C40.285648,13.960448 52.730980,13.972808 65.175606,14.040377 
	C66.039925,14.045071 66.900757,14.691993 67.902176,15.411036 
z"/>
<path fill="#39486C" opacity="1.000000" stroke="none" 
	d="
M14.931418,65.850113 
	C25.580360,65.410500 36.519875,65.340622 47.904816,65.368149 
	C47.209507,65.979187 46.073738,66.925034 44.927246,66.938210 
	C35.627712,67.045105 26.326077,66.990883 17.025440,66.930763 
	C16.422783,66.926857 15.823071,66.467400 14.931418,65.850113 
z"/>
<path fill="#4E5C7A" opacity="1.000000" stroke="none" 
	d="
M161.966461,83.046494 
	C161.125641,83.096130 160.284821,83.145782 159.444000,83.195435 
	C159.561523,82.769897 159.697845,81.973160 159.793610,81.978004 
	C160.511688,82.014359 161.221756,82.208855 161.970245,82.675415 
	C162.006165,82.996956 161.966461,83.046494 161.966461,83.046494 
z"/>
<path fill="#4E5C7A" opacity="1.000000" stroke="none" 
	d="
M162.028229,82.974136 
	C162.563278,83.201019 163.076279,83.450714 163.589264,83.700417 
	C163.475693,83.904877 163.362122,84.109344 163.248550,84.313805 
	C162.903336,84.046333 162.558136,83.778862 162.089691,83.278938 
	C161.966461,83.046494 162.006165,82.996956 162.028229,82.974136 
z"/>
<path fill="#C13D38" opacity="1.000000" stroke="none" 
	d="
M32.988693,49.631268 
	C33.537220,47.098305 33.408173,45.555195 30.595196,45.732788 
	C28.472189,45.866821 26.333937,45.759315 23.547880,45.759315 
	C24.184120,41.719967 24.735836,38.217224 25.299599,34.638012 
	C26.227585,34.481346 26.862627,34.304535 27.504183,34.276432 
	C35.174835,33.940456 35.094162,33.923431 37.159798,26.592104 
	C37.452446,25.553453 38.903751,24.258354 39.949406,24.127743 
	C42.715332,23.782257 45.552940,24.010662 48.781570,24.010662 
	C48.283562,27.440029 47.841080,30.487015 47.314327,34.114319 
	C50.540668,34.114319 53.596069,34.114319 56.596367,34.114319 
	C57.463562,44.350113 56.661236,45.186344 45.221878,46.016228 
	C44.600044,49.030529 43.943581,52.212708 43.232170,55.661217 
	C39.539879,55.661217 35.996838,55.661217 32.113892,55.661217 
	C32.416107,53.620640 32.677753,51.853981 32.988693,49.631268 
z"/>
</svg>